<?xml version="1.0" encoding="UTF-8"?>
<svg version="1.1" xmlns="http://www.w3.org/2000/svg" width="314" height="221">
<path d="M0 0 C0.98084564 -0.0004985 1.96169128 -0.00099701 2.97225952 -0.00151062 C5.03816767 0.00082268 7.10407904 0.01050714 9.16992188 0.02709961 C12.33228928 0.05075396 15.4938162 0.04764701 18.65625 0.04101562 C20.66667169 0.04659084 22.67708984 0.05369974 24.6875 0.0625 C25.6323526 0.06158859 26.5772052 0.06067719 27.5506897 0.05973816 C28.43195526 0.06927017 29.31322083 0.07880219 30.22119141 0.08862305 C30.9936319 0.09323044 31.76607239 0.09783783 32.56192017 0.10258484 C35.03741758 0.40288641 36.61137583 1.02394569 38.7109375 2.36328125 C42.14264104 8.32233351 42.52973484 14.48411056 43.1484375 21.23828125 C43.26767578 22.44081543 43.38691406 23.64334961 43.50976562 24.88232422 C43.77437626 27.56637597 44.03462674 30.25049835 44.28857422 32.93554688 C44.73733383 37.66830735 45.21029715 42.39854706 45.68359375 47.12890625 C47.48790442 65.23577988 49.19459733 83.34985547 50.75976562 101.47900391 C50.92702148 103.41525635 50.92702148 103.41525635 51.09765625 105.390625 C51.20126465 106.59187012 51.30487305 107.79311523 51.41162109 109.03076172 C51.74694626 112.76419449 52.12743827 116.49121315 52.53833008 120.21704102 C52.7305147 122.6067086 52.7390496 124.96692164 52.7109375 127.36328125 C53.3709375 127.36328125 54.0309375 127.36328125 54.7109375 127.36328125 C55.05125 126.31140625 55.05125 126.31140625 55.3984375 125.23828125 C57.04935038 121.6219959 59.001821 119.27558149 61.7109375 116.36328125 C62.3709375 116.36328125 63.0309375 116.36328125 63.7109375 116.36328125 C63.7109375 115.70328125 63.7109375 115.04328125 63.7109375 114.36328125 C64.3709375 114.36328125 65.0309375 114.36328125 65.7109375 114.36328125 C65.38609375 113.78449219 65.06125 113.20570313 64.7265625 112.609375 C62.38233507 107.42502588 63.65939309 101.26816162 64.5390625 95.8203125 C65.44236151 90.10223653 66.30817453 84.38003193 67.1484375 78.65234375 C67.3384433 77.35752327 67.3384433 77.35752327 67.5322876 76.0365448 C67.79356223 74.25421421 68.05460692 72.4718499 68.31542969 70.68945312 C68.70924418 67.99984597 69.10459053 65.31046682 69.5 62.62109375 C70.81966242 53.6223612 72.10308133 44.62144345 73.28125 35.60302734 C76.28448617 12.95930919 76.28448617 12.95930919 81.7109375 7.36328125 C82.3709375 7.36328125 83.0309375 7.36328125 83.7109375 7.36328125 C83.7521875 6.76515625 83.7934375 6.16703125 83.8359375 5.55078125 C84.7109375 3.36328125 84.7109375 3.36328125 87.13842773 1.75585938 C91.78332509 -0.05473958 95.80383964 -0.10438177 100.74609375 -0.10546875 C101.70237167 -0.11308228 102.6586496 -0.1206958 103.64390564 -0.12854004 C105.65849199 -0.13931141 107.67313405 -0.14220623 109.68774414 -0.13769531 C112.76738267 -0.13672067 115.84454742 -0.1784243 118.92382812 -0.22265625 C120.88541149 -0.22786196 122.84700348 -0.23055146 124.80859375 -0.23046875 C125.72641129 -0.24686401 126.64422882 -0.26325928 127.58985901 -0.28015137 C132.1524588 -0.2308499 134.09274486 -0.11527075 137.80639648 2.75952148 C139.7109375 5.36328125 139.7109375 5.36328125 140.0859375 7.6171875 C139.9003125 8.75994141 139.9003125 8.75994141 139.7109375 9.92578125 C139.57429687 10.79847656 139.43765625 11.67117187 139.296875 12.5703125 C138.48164716 16.45623186 137.5517071 20.29861945 136.53515625 24.13671875 C135.35132173 28.77106622 134.41046532 33.45034791 133.45703125 38.13671875 C132.72559182 41.29990706 131.75189288 44.29058164 130.7109375 47.36328125 C130.18033074 49.60730566 129.7248334 51.85617768 129.2734375 54.1171875 C128.7109375 56.36328125 128.7109375 56.36328125 127.76342773 58.65332031 C126.69228425 61.4113098 125.97593157 64.08778017 125.30859375 66.96875 C125.05787109 68.03544922 124.80714844 69.10214844 124.54882812 70.20117188 C124.29294922 71.30654297 124.03707031 72.41191406 123.7734375 73.55078125 C122.15438092 80.52804554 120.44552586 87.41752582 118.3293457 94.26147461 C117.62017631 96.67175463 117.15368854 99.0684683 116.7734375 101.55078125 C115.91711157 106.18372411 114.27616895 109.42992636 111.7109375 113.36328125 C112.3503125 113.59015625 112.9896875 113.81703125 113.6484375 114.05078125 C115.7109375 115.36328125 115.7109375 115.36328125 116.38671875 117.515625 C117.06343796 123.45933948 115.67038583 129.48978887 114.7109375 135.36328125 C114.60233398 136.0284375 114.49373047 136.69359375 114.38183594 137.37890625 C111.17903739 156.3529198 111.17903739 156.3529198 105.30810547 161.44897461 C100.81344155 164.35374986 95.9852073 163.8984801 90.80078125 163.82421875 C89.75571915 163.82330231 88.71065704 163.82238586 87.63392639 163.82144165 C85.43095338 163.81541532 83.22798819 163.7996986 81.02514648 163.77490234 C77.65643068 163.73836794 74.28881526 163.73388344 70.91992188 163.734375 C68.77603218 163.72454409 66.63214991 163.7128872 64.48828125 163.69921875 C62.98031227 163.69588028 62.98031227 163.69588028 61.44187927 163.69247437 C60.50062698 163.67971466 59.55937469 163.66695496 58.58959961 163.65380859 C57.76608505 163.646185 56.9425705 163.6385614 56.09410095 163.63070679 C53.7109375 163.36328125 53.7109375 163.36328125 51.09352112 162.22012329 C49.91414223 161.79598648 49.91414223 161.79598648 48.7109375 161.36328125 C47.7209375 162.02328125 46.7309375 162.68328125 45.7109375 163.36328125 C43.51686096 163.61724854 43.51686096 163.61724854 40.93579102 163.62207031 C39.96791153 163.62837463 39.00003204 163.63467896 38.00282288 163.64117432 C36.95903976 163.63712585 35.91525665 163.63307739 34.83984375 163.62890625 C33.22903175 163.63177643 33.22903175 163.63177643 31.5856781 163.63470459 C29.31354539 163.63606619 27.04140489 163.6323715 24.76928711 163.62402344 C21.29067489 163.61333422 17.81258037 163.6239144 14.33398438 163.63671875 C12.12760303 163.63539695 9.921222 163.63283412 7.71484375 163.62890625 C6.67308487 163.63295471 5.63132599 163.63700317 4.55799866 163.64117432 C3.58696701 163.63487 2.61593536 163.62856567 1.61547852 163.62207031 C0.76292984 163.62047913 -0.08961884 163.61888794 -0.96800232 163.61724854 C-3.52878928 163.33705067 -5.11267992 162.72542917 -7.2890625 161.36328125 C-11.53882439 155.74752446 -10.55712645 149.05495179 -10.2890625 142.36328125 C-12.93587154 142.47667329 -15.58083768 142.60340998 -18.2265625 142.73828125 C-19.35868164 142.7846875 -19.35868164 142.7846875 -20.51367188 142.83203125 C-22.44413645 142.93591275 -24.36848331 143.14223739 -26.2890625 143.36328125 C-26.6190625 144.02328125 -26.9490625 144.68328125 -27.2890625 145.36328125 C-27.9490625 145.36328125 -28.6090625 145.36328125 -29.2890625 145.36328125 C-29.4128125 146.08515625 -29.5365625 146.80703125 -29.6640625 147.55078125 C-31.03232784 153.70797526 -33.35095785 158.41150042 -38.72973633 161.98461914 C-43.69032052 163.90604166 -48.21206026 163.811892 -53.48828125 163.796875 C-54.56028275 163.80211685 -55.63228424 163.8073587 -56.73677063 163.8127594 C-58.99515925 163.81916584 -61.25358131 163.81786052 -63.51196289 163.80932617 C-66.97537002 163.80078419 -70.43714494 163.82964985 -73.90039062 163.86132812 C-76.09635367 163.86293941 -78.29231965 163.862364 -80.48828125 163.859375 C-81.52579025 163.87060898 -82.56329926 163.88184296 -83.63224792 163.89341736 C-84.59367203 163.88403641 -85.55509613 163.87465546 -86.5456543 163.86499023 C-87.39137497 163.86482407 -88.23709564 163.8646579 -89.10844421 163.86448669 C-91.2890625 163.36328125 -91.2890625 163.36328125 -93.03474426 161.44520569 C-95.16359237 157.91173168 -95.52176681 156.31903108 -94.5234375 152.21875 C-93.30024839 148.12183529 -91.57601554 144.3355416 -89.7265625 140.48828125 C-89.38230225 139.76302246 -89.03804199 139.03776367 -88.68334961 138.29052734 C-85.68398837 132.03911389 -82.47273647 125.90584775 -79.17163086 119.80908203 C-77.66325617 117.01649156 -76.29509096 114.38136663 -75.2890625 111.36328125 C-74.6290625 111.36328125 -73.9690625 111.36328125 -73.2890625 111.36328125 C-73.1653125 110.64140625 -73.0415625 109.91953125 -72.9140625 109.17578125 C-72.2985694 106.40606231 -71.40461876 103.96624585 -70.2890625 101.36328125 C-69.6290625 101.36328125 -68.9690625 101.36328125 -68.2890625 101.36328125 C-68.1653125 100.64140625 -68.0415625 99.91953125 -67.9140625 99.17578125 C-67.2985694 96.40606231 -66.40461876 93.96624585 -65.2890625 91.36328125 C-64.6290625 91.36328125 -63.9690625 91.36328125 -63.2890625 91.36328125 C-63.1034375 90.28046875 -63.1034375 90.28046875 -62.9140625 89.17578125 C-62.2985694 86.40606231 -61.40461876 83.96624585 -60.2890625 81.36328125 C-59.6290625 81.36328125 -58.9690625 81.36328125 -58.2890625 81.36328125 C-58.1034375 80.28046875 -58.1034375 80.28046875 -57.9140625 79.17578125 C-57.2985694 76.40606231 -56.40461876 73.96624585 -55.2890625 71.36328125 C-54.6290625 71.36328125 -53.9690625 71.36328125 -53.2890625 71.36328125 C-53.1034375 70.28046875 -53.1034375 70.28046875 -52.9140625 69.17578125 C-52.2985694 66.40606231 -51.40461876 63.96624585 -50.2890625 61.36328125 C-49.6290625 61.36328125 -48.9690625 61.36328125 -48.2890625 61.36328125 C-48.16450684 60.79270996 -48.03995117 60.22213867 -47.91162109 59.63427734 C-47.26373194 57.27087936 -46.38561345 55.2365236 -45.328125 53.02734375 C-44.93882813 52.21007812 -44.54953125 51.3928125 -44.1484375 50.55078125 C-43.74109375 49.70515625 -43.33375 48.85953125 -42.9140625 47.98828125 C-42.51445313 47.15039062 -42.11484375 46.3125 -41.703125 45.44921875 C-39.60765278 41.0652703 -37.47900856 36.70078732 -35.2890625 32.36328125 C-34.6290625 32.36328125 -33.9690625 32.36328125 -33.2890625 32.36328125 C-33.1034375 31.28046875 -33.1034375 31.28046875 -32.9140625 30.17578125 C-32.2985694 27.40606231 -31.40461876 24.96624585 -30.2890625 22.36328125 C-29.6290625 22.36328125 -28.9690625 22.36328125 -28.2890625 22.36328125 C-28.2065625 21.66203125 -28.1240625 20.96078125 -28.0390625 20.23828125 C-26.20059518 13.1908232 -19.92959323 5.69952735 -13.80859375 1.77148438 C-9.10680247 -0.10975398 -5.01628594 -0.04910557 0 0 Z " fill="#FDD972" transform="translate(127.2890625,24.63671875)"/>
<path d="M0 0 C0.98084564 -0.0004985 1.96169128 -0.00099701 2.97225952 -0.00151062 C5.03816767 0.00082268 7.10407904 0.01050714 9.16992188 0.02709961 C12.33228928 0.05075396 15.4938162 0.04764701 18.65625 0.04101562 C20.66667169 0.04659084 22.67708984 0.05369974 24.6875 0.0625 C25.6323526 0.06158859 26.5772052 0.06067719 27.5506897 0.05973816 C28.43195526 0.06927017 29.31322083 0.07880219 30.22119141 0.08862305 C30.9936319 0.09323044 31.76607239 0.09783783 32.56192017 0.10258484 C35.03741758 0.40288641 36.61137583 1.02394569 38.7109375 2.36328125 C42.14264104 8.32233351 42.52973484 14.48411056 43.1484375 21.23828125 C43.26767578 22.44081543 43.38691406 23.64334961 43.50976562 24.88232422 C43.77437626 27.56637597 44.03462674 30.25049835 44.28857422 32.93554688 C44.73733383 37.66830735 45.21029715 42.39854706 45.68359375 47.12890625 C47.48790442 65.23577988 49.19459733 83.34985547 50.75976562 101.47900391 C50.92702148 103.41525635 50.92702148 103.41525635 51.09765625 105.390625 C51.20126465 106.59187012 51.30487305 107.79311523 51.41162109 109.03076172 C51.74694626 112.76419449 52.12743827 116.49121315 52.53833008 120.21704102 C52.7305147 122.6067086 52.7390496 124.96692164 52.7109375 127.36328125 C53.3709375 127.36328125 54.0309375 127.36328125 54.7109375 127.36328125 C55.05125 126.31140625 55.05125 126.31140625 55.3984375 125.23828125 C57.04935038 121.6219959 59.001821 119.27558149 61.7109375 116.36328125 C62.3709375 116.36328125 63.0309375 116.36328125 63.7109375 116.36328125 C63.7109375 115.70328125 63.7109375 115.04328125 63.7109375 114.36328125 C64.3709375 114.36328125 65.0309375 114.36328125 65.7109375 114.36328125 C65.38609375 113.78449219 65.06125 113.20570313 64.7265625 112.609375 C62.38233507 107.42502588 63.65939309 101.26816162 64.5390625 95.8203125 C65.44236151 90.10223653 66.30817453 84.38003193 67.1484375 78.65234375 C67.3384433 77.35752327 67.3384433 77.35752327 67.5322876 76.0365448 C67.79356223 74.25421421 68.05460692 72.4718499 68.31542969 70.68945312 C68.70924418 67.99984597 69.10459053 65.31046682 69.5 62.62109375 C70.81966242 53.6223612 72.10308133 44.62144345 73.28125 35.60302734 C76.28448617 12.95930919 76.28448617 12.95930919 81.7109375 7.36328125 C82.3709375 7.36328125 83.0309375 7.36328125 83.7109375 7.36328125 C83.7521875 6.76515625 83.7934375 6.16703125 83.8359375 5.55078125 C84.7109375 3.36328125 84.7109375 3.36328125 87.13842773 1.75585938 C91.78332509 -0.05473958 95.80383964 -0.10438177 100.74609375 -0.10546875 C101.70237167 -0.11308228 102.6586496 -0.1206958 103.64390564 -0.12854004 C105.65849199 -0.13931141 107.67313405 -0.14220623 109.68774414 -0.13769531 C112.76738267 -0.13672067 115.84454742 -0.1784243 118.92382812 -0.22265625 C120.88541149 -0.22786196 122.84700348 -0.23055146 124.80859375 -0.23046875 C125.72641129 -0.24686401 126.64422882 -0.26325928 127.58985901 -0.28015137 C132.1524588 -0.2308499 134.09274486 -0.11527075 137.80639648 2.75952148 C139.7109375 5.36328125 139.7109375 5.36328125 140.0859375 7.6171875 C139.9003125 8.75994141 139.9003125 8.75994141 139.7109375 9.92578125 C139.57429687 10.79847656 139.43765625 11.67117187 139.296875 12.5703125 C138.48164716 16.45623186 137.5517071 20.29861945 136.53515625 24.13671875 C135.35132173 28.77106622 134.41046532 33.45034791 133.45703125 38.13671875 C132.72559182 41.29990706 131.75189288 44.29058164 130.7109375 47.36328125 C130.18033074 49.60730566 129.7248334 51.85617768 129.2734375 54.1171875 C128.7109375 56.36328125 128.7109375 56.36328125 127.76342773 58.65332031 C126.69228425 61.4113098 125.97593157 64.08778017 125.30859375 66.96875 C125.05787109 68.03544922 124.80714844 69.10214844 124.54882812 70.20117188 C124.29294922 71.30654297 124.03707031 72.41191406 123.7734375 73.55078125 C122.15438092 80.52804554 120.44552586 87.41752582 118.3293457 94.26147461 C117.62017631 96.67175463 117.15368854 99.0684683 116.7734375 101.55078125 C115.91711157 106.18372411 114.27616895 109.42992636 111.7109375 113.36328125 C112.3503125 113.59015625 112.9896875 113.81703125 113.6484375 114.05078125 C115.7109375 115.36328125 115.7109375 115.36328125 116.38671875 117.515625 C117.06343796 123.45933948 115.67038583 129.48978887 114.7109375 135.36328125 C114.60233398 136.0284375 114.49373047 136.69359375 114.38183594 137.37890625 C111.17903739 156.3529198 111.17903739 156.3529198 105.30810547 161.44897461 C100.81344155 164.35374986 95.9852073 163.8984801 90.80078125 163.82421875 C89.75571915 163.82330231 88.71065704 163.82238586 87.63392639 163.82144165 C85.43095338 163.81541532 83.22798819 163.7996986 81.02514648 163.77490234 C77.65643068 163.73836794 74.28881526 163.73388344 70.91992188 163.734375 C68.77603218 163.72454409 66.63214991 163.7128872 64.48828125 163.69921875 C62.98031227 163.69588028 62.98031227 163.69588028 61.44187927 163.69247437 C60.50062698 163.67971466 59.55937469 163.66695496 58.58959961 163.65380859 C57.76608505 163.646185 56.9425705 163.6385614 56.09410095 163.63070679 C53.7109375 163.36328125 53.7109375 163.36328125 51.09352112 162.22012329 C49.91414223 161.79598648 49.91414223 161.79598648 48.7109375 161.36328125 C47.7209375 162.02328125 46.7309375 162.68328125 45.7109375 163.36328125 C43.51686096 163.61724854 43.51686096 163.61724854 40.93579102 163.62207031 C39.96791153 163.62837463 39.00003204 163.63467896 38.00282288 163.64117432 C36.95903976 163.63712585 35.91525665 163.63307739 34.83984375 163.62890625 C33.22903175 163.63177643 33.22903175 163.63177643 31.5856781 163.63470459 C29.31354539 163.63606619 27.04140489 163.6323715 24.76928711 163.62402344 C21.29067489 163.61333422 17.81258037 163.6239144 14.33398438 163.63671875 C12.12760303 163.63539695 9.921222 163.63283412 7.71484375 163.62890625 C6.67308487 163.63295471 5.63132599 163.63700317 4.55799866 163.64117432 C3.58696701 163.63487 2.61593536 163.62856567 1.61547852 163.62207031 C0.76292984 163.62047913 -0.08961884 163.61888794 -0.96800232 163.61724854 C-3.52878928 163.33705067 -5.11267992 162.72542917 -7.2890625 161.36328125 C-11.53882439 155.74752446 -10.55712645 149.05495179 -10.2890625 142.36328125 C-12.93587154 142.47667329 -15.58083768 142.60340998 -18.2265625 142.73828125 C-19.35868164 142.7846875 -19.35868164 142.7846875 -20.51367188 142.83203125 C-22.44413645 142.93591275 -24.36848331 143.14223739 -26.2890625 143.36328125 C-26.6190625 144.02328125 -26.9490625 144.68328125 -27.2890625 145.36328125 C-27.9490625 145.36328125 -28.6090625 145.36328125 -29.2890625 145.36328125 C-29.4128125 146.08515625 -29.5365625 146.80703125 -29.6640625 147.55078125 C-31.03232784 153.70797526 -33.35095785 158.41150042 -38.72973633 161.98461914 C-43.69032052 163.90604166 -48.21206026 163.811892 -53.48828125 163.796875 C-54.56028275 163.80211685 -55.63228424 163.8073587 -56.73677063 163.8127594 C-58.99515925 163.81916584 -61.25358131 163.81786052 -63.51196289 163.80932617 C-66.97537002 163.80078419 -70.43714494 163.82964985 -73.90039062 163.86132812 C-76.09635367 163.86293941 -78.29231965 163.862364 -80.48828125 163.859375 C-81.52579025 163.87060898 -82.56329926 163.88184296 -83.63224792 163.89341736 C-84.59367203 163.88403641 -85.55509613 163.87465546 -86.5456543 163.86499023 C-87.39137497 163.86482407 -88.23709564 163.8646579 -89.10844421 163.86448669 C-91.2890625 163.36328125 -91.2890625 163.36328125 -93.03474426 161.44520569 C-95.16359237 157.91173168 -95.52176681 156.31903108 -94.5234375 152.21875 C-93.30024839 148.12183529 -91.57601554 144.3355416 -89.7265625 140.48828125 C-89.38230225 139.76302246 -89.03804199 139.03776367 -88.68334961 138.29052734 C-85.68398837 132.03911389 -82.47273647 125.90584775 -79.17163086 119.80908203 C-77.66325617 117.01649156 -76.29509096 114.38136663 -75.2890625 111.36328125 C-74.6290625 111.36328125 -73.9690625 111.36328125 -73.2890625 111.36328125 C-73.1653125 110.64140625 -73.0415625 109.91953125 -72.9140625 109.17578125 C-72.2985694 106.40606231 -71.40461876 103.96624585 -70.2890625 101.36328125 C-69.6290625 101.36328125 -68.9690625 101.36328125 -68.2890625 101.36328125 C-68.1653125 100.64140625 -68.0415625 99.91953125 -67.9140625 99.17578125 C-67.2985694 96.40606231 -66.40461876 93.96624585 -65.2890625 91.36328125 C-64.6290625 91.36328125 -63.9690625 91.36328125 -63.2890625 91.36328125 C-63.1034375 90.28046875 -63.1034375 90.28046875 -62.9140625 89.17578125 C-62.2985694 86.40606231 -61.40461876 83.96624585 -60.2890625 81.36328125 C-59.6290625 81.36328125 -58.9690625 81.36328125 -58.2890625 81.36328125 C-58.1034375 80.28046875 -58.1034375 80.28046875 -57.9140625 79.17578125 C-57.2985694 76.40606231 -56.40461876 73.96624585 -55.2890625 71.36328125 C-54.6290625 71.36328125 -53.9690625 71.36328125 -53.2890625 71.36328125 C-53.1034375 70.28046875 -53.1034375 70.28046875 -52.9140625 69.17578125 C-52.2985694 66.40606231 -51.40461876 63.96624585 -50.2890625 61.36328125 C-49.6290625 61.36328125 -48.9690625 61.36328125 -48.2890625 61.36328125 C-48.16450684 60.79270996 -48.03995117 60.22213867 -47.91162109 59.63427734 C-47.26373194 57.27087936 -46.38561345 55.2365236 -45.328125 53.02734375 C-44.93882813 52.21007812 -44.54953125 51.3928125 -44.1484375 50.55078125 C-43.74109375 49.70515625 -43.33375 48.85953125 -42.9140625 47.98828125 C-42.51445313 47.15039062 -42.11484375 46.3125 -41.703125 45.44921875 C-39.60765278 41.0652703 -37.47900856 36.70078732 -35.2890625 32.36328125 C-34.6290625 32.36328125 -33.9690625 32.36328125 -33.2890625 32.36328125 C-33.1034375 31.28046875 -33.1034375 31.28046875 -32.9140625 30.17578125 C-32.2985694 27.40606231 -31.40461876 24.96624585 -30.2890625 22.36328125 C-29.6290625 22.36328125 -28.9690625 22.36328125 -28.2890625 22.36328125 C-28.2065625 21.66203125 -28.1240625 20.96078125 -28.0390625 20.23828125 C-26.20059518 13.1908232 -19.92959323 5.69952735 -13.80859375 1.77148438 C-9.10680247 -0.10975398 -5.01628594 -0.04910557 0 0 Z M-18.0390625 12.11328125 C-20.50638171 15.67718678 -21.36970034 18.18436234 -22.2890625 22.36328125 C-22.9490625 22.36328125 -23.6090625 22.36328125 -24.2890625 22.36328125 C-26.57951264 27.17538026 -26.57951264 27.17538026 -27.2890625 32.36328125 C-27.9490625 32.36328125 -28.6090625 32.36328125 -29.2890625 32.36328125 C-31.57951264 37.17538026 -31.57951264 37.17538026 -32.2890625 42.36328125 C-32.9490625 42.36328125 -33.6090625 42.36328125 -34.2890625 42.36328125 C-35.2790625 45.66328125 -36.2690625 48.96328125 -37.2890625 52.36328125 C-37.9490625 52.36328125 -38.6090625 52.36328125 -39.2890625 52.36328125 C-42.53464656 59.11833727 -42.53464656 59.11833727 -44.2890625 66.36328125 C-44.9490625 66.36328125 -45.6090625 66.36328125 -46.2890625 66.36328125 C-48.57951264 71.17538026 -48.57951264 71.17538026 -49.2890625 76.36328125 C-49.9490625 76.36328125 -50.6090625 76.36328125 -51.2890625 76.36328125 C-52.7106944 79.68042235 -53.67915359 82.80547929 -54.2890625 86.36328125 C-54.9490625 86.36328125 -55.6090625 86.36328125 -56.2890625 86.36328125 C-57.7106944 89.68042235 -58.67915359 92.80547929 -59.2890625 96.36328125 C-59.9490625 96.36328125 -60.6090625 96.36328125 -61.2890625 96.36328125 C-63.57951264 101.17538026 -63.57951264 101.17538026 -64.2890625 106.36328125 C-64.9490625 106.36328125 -65.6090625 106.36328125 -66.2890625 106.36328125 C-68.32341781 110.09293264 -69.2890625 112.03233167 -69.2890625 116.36328125 C-69.9490625 116.36328125 -70.6090625 116.36328125 -71.2890625 116.36328125 C-73.72066855 119.7301204 -74.2890625 121.09678489 -74.2890625 125.36328125 C-74.9490625 125.36328125 -75.6090625 125.36328125 -76.2890625 125.36328125 C-77.7740625 130.31328125 -77.7740625 130.31328125 -79.2890625 135.36328125 C-79.9490625 135.36328125 -80.6090625 135.36328125 -81.2890625 135.36328125 C-82.2790625 138.66328125 -83.2690625 141.96328125 -84.2890625 145.36328125 C-84.9490625 145.36328125 -85.6090625 145.36328125 -86.2890625 145.36328125 C-87.28039614 150.08825155 -87.28039614 150.08825155 -86.4765625 154.73828125 C-85.36920523 156.51416369 -85.36920523 156.51416369 -83.2890625 157.36328125 C-80.66045381 157.4865323 -78.05939165 157.55166834 -75.4296875 157.56640625 C-74.64768982 157.57210632 -73.86569214 157.5778064 -73.05999756 157.5836792 C-71.40231683 157.59313373 -69.74461728 157.59966498 -68.08691406 157.60351562 C-65.56281191 157.61319022 -63.03953489 157.64419536 -60.515625 157.67578125 C-58.90365066 157.6823146 -57.2916705 157.68756377 -55.6796875 157.69140625 C-54.55436615 157.70992645 -54.55436615 157.70992645 -53.40631104 157.7288208 C-47.5264722 157.70410096 -43.60928655 156.26389032 -39.0859375 152.55859375 C-36.93414024 149.92965884 -35.79397865 147.39106441 -34.5390625 144.23828125 C-34.11109375 143.18382812 -33.683125 142.129375 -33.2421875 141.04296875 C-32.17735648 138.52324704 -32.17735648 138.52324704 -32.2890625 136.36328125 C-22.3890625 136.36328125 -12.4890625 136.36328125 -2.2890625 136.36328125 C-2.2890625 141.31328125 -2.2890625 146.26328125 -2.2890625 151.36328125 C-1.6290625 152.35328125 -0.9690625 153.34328125 -0.2890625 154.36328125 C0.3709375 154.36328125 1.0309375 154.36328125 1.7109375 154.36328125 C1.7109375 155.02328125 1.7109375 155.68328125 1.7109375 156.36328125 C4.89008467 157.95285484 8.33078132 157.56861847 11.82421875 157.6015625 C13.03406685 157.61367012 13.03406685 157.61367012 14.26835632 157.62602234 C15.97730357 157.63986268 17.68627846 157.65058507 19.39526367 157.65844727 C22.0029778 157.67564631 24.60941937 157.71952919 27.21679688 157.76367188 C28.87759485 157.77380022 30.5384036 157.78231588 32.19921875 157.7890625 C33.3650927 157.81532463 33.3650927 157.81532463 34.55451965 157.84211731 C38.29790806 157.82719564 40.51486544 157.48221279 43.74291992 155.52416992 C46.04760845 153.4807425 46.04760845 153.4807425 45.7109375 150.36328125 C46.3709375 150.36328125 47.0309375 150.36328125 47.7109375 150.36328125 C47.62529541 149.50275146 47.53965332 148.64222168 47.45141602 147.75561523 C47.12707234 144.48480305 46.80492108 141.21378886 46.48413086 137.94262695 C46.34630221 136.54150208 46.20766313 135.14045664 46.06811523 133.73950195 C45.20351672 125.05293997 44.4884364 116.37847246 43.93676758 107.66577148 C43.66229601 103.65195863 43.25643289 99.66896896 42.7734375 95.67578125 C42.59794402 94.16287773 42.42350757 92.64985131 42.25 91.13671875 C42.16137695 90.36424805 42.07275391 89.59177734 41.98144531 88.79589844 C41.40949557 83.6524804 40.91296482 78.50122032 40.40844727 73.35083008 C40.29327759 72.17943481 40.29327759 72.17943481 40.17578125 70.984375 C40.07704712 69.97008423 40.07704712 69.97008423 39.97631836 68.93530273 C39.74421444 66.68579509 39.49331758 64.43961395 39.23828125 62.19262695 C38.69124281 57.29175816 38.24474309 52.38443994 37.80859375 47.47265625 C37.63908752 45.6106392 37.46915314 43.74866108 37.29882812 41.88671875 C37.03396681 38.98827364 36.77136096 36.0897169 36.51586914 33.19042969 C36.2663224 30.36714965 36.00708807 27.54489807 35.74609375 24.72265625 C35.67205826 23.85799744 35.59802277 22.99333862 35.52174377 22.10247803 C34.9959683 16.54036513 34.52539684 12.33286221 30.60913086 8.08178711 C26.84187629 5.84796478 23.59503009 5.80467592 19.33984375 5.8671875 C18.53989487 5.86573227 17.73994598 5.86427704 16.91575623 5.86277771 C15.2288752 5.86443294 13.54197849 5.87595211 11.85522461 5.89672852 C9.28498563 5.9256513 6.71681579 5.91733675 4.14648438 5.90429688 C2.50259422 5.91053614 0.85871054 5.91892855 -0.78515625 5.9296875 C-1.5478331 5.92675186 -2.31050995 5.92381622 -3.09629822 5.92079163 C-9.38742271 6.03098265 -13.48784743 7.56206618 -18.0390625 12.11328125 Z " fill="#080604" transform="translate(127.2890625,24.63671875)"/>
<path d="M0 0 C0.78391113 -0.0066568 1.56782227 -0.0133136 2.37548828 -0.02017212 C4.02959858 -0.03027774 5.68374948 -0.03498979 7.33789062 -0.03466797 C9.86656703 -0.03904789 12.39350645 -0.07540491 14.921875 -0.11328125 C16.53124405 -0.11914857 18.14062136 -0.12311853 19.75 -0.125 C20.88139404 -0.14655655 20.88139404 -0.14655655 22.03564453 -0.16854858 C25.52660812 -0.13818849 27.51203954 0.06945524 30.36132812 2.16137695 C32.85925621 5.74993268 32.2091489 9.12055229 31.578125 13.30419922 C31.21802659 15.30480028 30.80769138 17.28734507 30.375 19.2734375 C30.23191406 19.95728516 30.08882813 20.64113281 29.94140625 21.34570312 C29.59216229 23.01043264 29.23447054 24.67338625 28.875 26.3359375 C28.215 26.3359375 27.555 26.3359375 26.875 26.3359375 C26.78412109 27.33173828 26.78412109 27.33173828 26.69140625 28.34765625 C25.85918278 37.11801131 25.85918278 37.11801131 24.875 41.3359375 C24.215 41.3359375 23.555 41.3359375 22.875 41.3359375 C22.82601562 41.95339844 22.77703125 42.57085937 22.7265625 43.20703125 C22.20891578 49.07071909 21.25917877 54.61466525 19.875 60.3359375 C19.215 60.3359375 18.555 60.3359375 17.875 60.3359375 C17.78412109 61.33173828 17.78412109 61.33173828 17.69140625 62.34765625 C16.85918278 71.11801131 16.85918278 71.11801131 15.875 75.3359375 C15.215 75.3359375 14.555 75.3359375 13.875 75.3359375 C13.82601562 75.94179687 13.77703125 76.54765625 13.7265625 77.171875 C13.1767522 83.33354214 12.19890951 89.29479701 10.875 95.3359375 C10.215 95.3359375 9.555 95.3359375 8.875 95.3359375 C8.7925 95.9340625 8.71 96.5321875 8.625 97.1484375 C7.61936663 100.08153482 6.54626475 100.77365983 3.875 102.3359375 C-0.42937688 102.90785934 -4.74219291 102.85113257 -9.0793457 102.83691406 C-11.18513442 102.8359386 -13.28731256 102.87764157 -15.39257812 102.921875 C-16.73176325 102.92708027 -18.07096101 102.92977022 -19.41015625 102.9296875 C-21.23365601 102.94032227 -21.23365601 102.94032227 -23.09399414 102.95117188 C-26.125 102.3359375 -26.125 102.3359375 -28.08569336 100.28271484 C-29.41681038 96.50855877 -29.07789183 93.45343681 -28.46875 89.59375 C-28.36590698 88.84972931 -28.26306396 88.10570862 -28.15710449 87.33914185 C-27.829981 85.0019532 -27.4783414 82.66928943 -27.125 80.3359375 C-26.91898782 78.89312909 -26.71451922 77.45009929 -26.51171875 76.00683594 C-25.90617234 71.73795456 -25.26796045 67.47431976 -24.625 63.2109375 C-24.19635698 60.35439819 -23.76940538 57.49761098 -23.34375 54.640625 C-23.23964813 53.94314651 -23.13554626 53.24566803 -23.02828979 52.52705383 C-22.3422209 47.89708488 -21.70906213 43.26216391 -21.1015625 38.62109375 C-20.19052328 31.69206308 -19.1252108 24.79556293 -18 17.8984375 C-17.72736328 16.21137695 -17.72736328 16.21137695 -17.44921875 14.49023438 C-17.00964735 11.77183232 -16.56823633 9.05374394 -16.125 6.3359375 C-15.465 6.3359375 -14.805 6.3359375 -14.125 6.3359375 C-13.75375 5.4078125 -13.75375 5.4078125 -13.375 4.4609375 C-10.41808761 -0.56581357 -5.27578554 0.01556757 0 0 Z " fill="#FBD872" transform="translate(227.125,30.6640625)"/>
<path d="M0 0 C0.78391113 -0.0066568 1.56782227 -0.0133136 2.37548828 -0.02017212 C4.02959858 -0.03027774 5.68374948 -0.03498979 7.33789062 -0.03466797 C9.86656703 -0.03904789 12.39350645 -0.07540491 14.921875 -0.11328125 C16.53124405 -0.11914857 18.14062136 -0.12311853 19.75 -0.125 C20.88139404 -0.14655655 20.88139404 -0.14655655 22.03564453 -0.16854858 C25.52614827 -0.13819249 27.49463016 0.04952083 30.3203125 2.17724609 C32.26373719 4.87570104 32.96041823 6.56162679 32.59301758 9.89208984 C31.97288624 13.16830523 31.34107713 16.44121079 30.6875 19.7109375 C30.47802734 20.84789062 30.26855469 21.98484375 30.05273438 23.15625 C29.83552734 24.25453125 29.61832031 25.3528125 29.39453125 26.484375 C29.19964111 27.48645996 29.00475098 28.48854492 28.80395508 29.52099609 C27.4956808 33.48535941 25.48649833 36.141315 22.1328125 38.62744141 C18.70878466 39.70189305 15.30473098 39.66138585 11.75 39.671875 C10.96608887 39.6785318 10.18217773 39.6851886 9.37451172 39.69204712 C7.72040142 39.70215274 6.06625052 39.70686479 4.41210938 39.70654297 C1.88343297 39.71092289 -0.64350645 39.74727991 -3.171875 39.78515625 C-4.78124405 39.79102357 -6.39062136 39.79499353 -8 39.796875 C-9.13139404 39.81843155 -9.13139404 39.81843155 -10.28564453 39.84042358 C-13.77614827 39.81006749 -15.74463016 39.62235417 -18.5703125 37.49462891 C-20.51373719 34.79617396 -21.21041823 33.11024821 -20.84301758 29.77978516 C-20.22288624 26.50356977 -19.59107713 23.23066421 -18.9375 19.9609375 C-18.72802734 18.82398438 -18.51855469 17.68703125 -18.30273438 16.515625 C-18.08552734 15.41734375 -17.86832031 14.3190625 -17.64453125 13.1875 C-17.44964111 12.18541504 -17.25475098 11.18333008 -17.05395508 10.15087891 C-15.7456808 6.18651559 -13.73649833 3.53056 -10.3828125 1.04443359 C-6.95878466 -0.03001805 -3.55473098 0.01048915 0 0 Z " fill="#FCD973" transform="translate(204.125,142.6640625)"/>
<path d="M0 0 C0.33 0 0.66 0 1 0 C1.16723026 5.25087844 1.32782815 10.50190094 1.48217773 15.75317383 C1.53567402 17.54099032 1.59100904 19.32875275 1.64819336 21.11645508 C1.72989235 23.68038266 1.80505945 26.24442953 1.87890625 28.80859375 C1.90594131 29.6127623 1.93297638 30.41693085 1.96083069 31.24546814 C2.01285627 33.16298422 2.01187441 35.08181503 2 37 C1 38 1 38 -2.81640625 38.09765625 C-4.39846682 38.09098089 -5.98051159 38.07901875 -7.5625 38.0625 C-8.36880859 38.05798828 -9.17511719 38.05347656 -10.00585938 38.04882812 C-12.00393756 38.03700518 -14.00197783 38.01906914 -16 38 C-15.01 37.505 -15.01 37.505 -14 37 C-14 35.35 -14 33.7 -14 32 C-13.34 32 -12.68 32 -12 32 C-12 30.35 -12 28.7 -12 27 C-11.34 27 -10.68 27 -10 27 C-10 25.35 -10 23.7 -10 22 C-9.34 22 -8.68 22 -8 22 C-8 20.35 -8 18.7 -8 17 C-7.34 17 -6.68 17 -6 17 C-5.90203125 16.443125 -5.8040625 15.88625 -5.703125 15.3125 C-4.58748557 9.6188919 -2.77761221 5.09228905 0 0 Z " fill="#0C0804" transform="translate(123,94)"/>
<path d="M0 0 C1.12775345 0.00212242 1.12775345 0.00212242 2.27828979 0.00428772 C4.6829626 0.0098916 7.08754277 0.02244468 9.4921875 0.03515625 C11.12109241 0.04017075 12.74999877 0.04473375 14.37890625 0.04882812 C18.37503577 0.05986228 22.37109592 0.07712946 26.3671875 0.09765625 C26.3671875 0.42765625 26.3671875 0.75765625 26.3671875 1.09765625 C25.65175781 1.11747559 24.93632812 1.13729492 24.19921875 1.15771484 C20.9215389 1.25364952 17.64443749 1.36304923 14.3671875 1.47265625 C13.24183594 1.50359375 12.11648437 1.53453125 10.95703125 1.56640625 C3.38952032 1.83193295 -3.1440018 2.3532509 -10.0078125 5.78515625 C-10.8740625 6.21828125 -11.7403125 6.65140625 -12.6328125 7.09765625 C-13.2928125 6.76765625 -13.9528125 6.43765625 -14.6328125 6.09765625 C-9.4822266 0.81152862 -7.2269498 -0.05086047 0 0 Z " fill="#EDD388" transform="translate(203.6328125,142.90234375)"/>
<path d="M0 0 C0.33 0 0.66 0 1 0 C1.19401633 1.81181405 1.38004375 3.62448532 1.5625 5.4375 C1.66691406 6.44683594 1.77132812 7.45617187 1.87890625 8.49609375 C1.93884766 9.73552734 1.93884766 9.73552734 2 11 C1.67 11.33 1.34 11.66 1 12 C0.83900898 13.80965829 0.72206604 15.62328958 0.625 17.4375 C0.19731828 23.29183173 -1.05748075 28.47786981 -3 34 C-3.33 34 -3.66 34 -4 34 C-3.44919886 22.52814175 -1.8121781 11.32896246 0 0 Z " fill="#E0C577" transform="translate(207,62)"/>
<path d="M0 0 C0.66 0.33 1.32 0.66 2 1 C2.37890625 3.1171875 2.37890625 3.1171875 2.5625 5.875 C2.6346875 6.86757812 2.706875 7.86015625 2.78125 8.8828125 C2.8534375 9.91148437 2.925625 10.94015625 3 12 C3.18403226 13.91700274 3.37139973 15.83368895 3.5625 17.75 C3.93980672 21.85910603 4.0916464 25.87591196 4 30 C3.01 30 2.02 30 1 30 C1.01160156 29.14277344 1.02320313 28.28554687 1.03515625 27.40234375 C1.19947184 17.55675185 1.19947184 17.55675185 -0.625 7.9375 C-1.16350132 5.1552432 -0.56224588 2.74875762 0 0 Z " fill="#E2C577" transform="translate(169,133)"/>
<path d="M0 0 C0.95465783 2.16967689 1.14401212 3.56328793 0.3984375 5.82421875 C-0.35870385 7.5684743 -1.17609198 9.28627131 -2 11 C-2.66 11 -3.32 11 -4 11 C-3.79375 11.598125 -3.5875 12.19625 -3.375 12.8125 C-3 15 -3 15 -5 18 C-5.66 18 -6.32 18 -7 18 C-7.28875 18.804375 -7.5775 19.60875 -7.875 20.4375 C-9 23 -9 23 -11 24 C-10.67 22.35 -10.34 20.7 -10 19 C-9.34 19 -8.68 19 -8 19 C-7.01 15.7 -6.02 12.4 -5 9 C-4.34 9 -3.68 9 -3 9 C-2.87625 8.2575 -2.7525 7.515 -2.625 6.75 C-2.04513299 4.19858515 -1.26291261 2.2732427 0 0 Z " fill="#CBB56B" transform="translate(56,141)"/>
<path d="M0 0 C0.66 0.66 1.32 1.32 2 2 C1.75 4.0625 1.75 4.0625 1 6 C0.01 6.495 0.01 6.495 -1 7 C-1 8.65 -1 10.3 -1 12 C-0.34 12.33 0.32 12.66 1 13 C-1 15 -1 15 -4 17 C-4.66 16.67 -5.32 16.34 -6 16 C-6 16.99 -6 17.98 -6 19 C-6.66 19 -7.32 19 -8 19 C-7.01 16.03 -6.02 13.06 -5 10 C-4.34 10 -3.68 10 -3 10 C-2.814375 8.9171875 -2.814375 8.9171875 -2.625 7.8125 C-2.0095069 5.04278106 -1.11555626 2.6029646 0 0 Z " fill="#ECCD75" transform="translate(71,111)"/>
<path d="M0 0 C2.40655184 2.40655184 2.34078556 3.2676306 2.6328125 6.578125 C2.71660156 7.49207031 2.80039063 8.40601563 2.88671875 9.34765625 C2.96535156 10.30542969 3.04398438 11.26320313 3.125 12.25 C3.21136719 13.19230469 3.29773438 14.13460937 3.38671875 15.10546875 C3.79713697 19.75036069 4.10964758 24.332146 4 29 C1.32072659 24.98108988 1.84398752 22.75838077 2 18 C1.34 17.67 0.68 17.34 0 17 C0 11.39 0 5.78 0 0 Z " fill="#DCC374" transform="translate(161,50)"/>
<path d="M0 0 C1.12377697 3.30435084 0.89554742 5.0506862 -0.4375 8.25 C-0.72496094 8.95640625 -1.01242188 9.6628125 -1.30859375 10.390625 C-1.53675781 10.92171875 -1.76492187 11.4528125 -2 12 C-2.66 12 -3.32 12 -4 12 C-4 13.65 -4 15.3 -4 17 C-4.66 17 -5.32 17 -6 17 C-6 17.66 -6 18.32 -6 19 C-6.66 19 -7.32 19 -8 19 C-7.34580901 13.93001981 -5.1453591 9.58009223 -3 5 C-2.34 5 -1.68 5 -1 5 C-0.67 3.35 -0.34 1.7 0 0 Z " fill="#DCC073" transform="translate(91,72)"/>
<path d="M0 0 C0.33 0.66 0.66 1.32 1 2 C0.01 3.485 0.01 3.485 -1 5 C-1.38477204 7.57123371 -1.38477204 7.57123371 -1.5 10.375 C-1.71854961 14.34167547 -2.36294526 17.36943506 -4 21 C-4.33 21 -4.66 21 -5 21 C-5.23268915 14.71739294 -4.40454548 9.11980533 -3 3 C-2.34 3 -1.68 3 -1 3 C-0.67 2.01 -0.34 1.02 0 0 Z " fill="#DDC679" transform="translate(214,34)"/>
<path d="M0 0 C0.33 0.99 0.66 1.98 1 3 C0.34 3 -0.32 3 -1 3 C-0.34 5.31 0.32 7.62 1 10 C1.99 9.67 2.98 9.34 4 9 C4.66 9.66 5.32 10.32 6 11 C3.525 12.485 3.525 12.485 1 14 C-1.4992935 11.8267013 -2.60976535 10.31699452 -3 7 C-2.5625 4.25 -2.5625 4.25 -2 2 C-1.34 2 -0.68 2 0 2 C0 1.34 0 0.68 0 0 Z " fill="#E5CA78" transform="translate(43,168)"/>
<path d="M0 0 C0.99 0.33 1.98 0.66 3 1 C3.66 6.94 4.32 12.88 5 19 C2 16 2 16 1.8125 12.3125 C1.874375 11.219375 1.93625 10.12625 2 9 C1.34 9 0.68 9 0 9 C0 8.34 0 7.68 0 7 C0.66 7 1.32 7 2 7 C1.34 4.69 0.68 2.38 0 0 Z " fill="#D3B96D" transform="translate(165,102)"/>
<path d="M0 0 C2.13586678 3.20380017 2.23132175 4.01939967 2.125 7.6875 C2.10695312 8.49574219 2.08890625 9.30398437 2.0703125 10.13671875 C2.03550781 11.05904297 2.03550781 11.05904297 2 12 C0 10 0 10 -0.4375 7.9375 C-0.7159375 6.9784375 -0.7159375 6.9784375 -1 6 C-1.99 5.67 -2.98 5.34 -4 5 C-3.67 4.01 -3.34 3.02 -3 2 C-2.34 2.33 -1.68 2.66 -1 3 C-0.67 2.01 -0.34 1.02 0 0 Z " fill="#E9CA74" transform="translate(165,91)"/>
<path d="M0 0 C0.33 0 0.66 0 1 0 C1 3.63 1 7.26 1 11 C0.34 10.01 -0.32 9.02 -1 8 C-1.99 9.32 -2.98 10.64 -4 12 C-3.33501617 7.61110675 -1.81242323 4.0188515 0 0 Z " fill="#413214" transform="translate(123,94)"/>
<path d="M0 0 C0.99 0.33 1.98 0.66 3 1 C3.33 4.3 3.66 7.6 4 11 C3.34 11 2.68 11 2 11 C1.67 11.99 1.34 12.98 1 14 C1.020625 12.80375 1.04125 11.6075 1.0625 10.375 C1.06882571 6.81995131 0.69888875 3.49444376 0 0 Z " fill="#DABF76" transform="translate(171,164)"/>
<path d="M0 0 C0.99 0 1.98 0 3 0 C2.4739075 3.78786597 1.61896089 6.17152224 -1 9 C-1.66 9 -2.32 9 -3 9 C-2.01 6.03 -1.02 3.06 0 0 Z " fill="#D8BD72" transform="translate(98,57)"/>
<path d="M0 0 C-0.66 1.65 -1.32 3.3 -2 5 C-2.66 5 -3.32 5 -4 5 C-4.28875 5.804375 -4.5775 6.60875 -4.875 7.4375 C-6 10 -6 10 -8 11 C-7.67 9.35 -7.34 7.7 -7 6 C-6.34 6 -5.68 6 -5 6 C-4.87625 5.195625 -4.7525 4.39125 -4.625 3.5625 C-4.41875 2.716875 -4.2125 1.87125 -4 1 C-2 0 -2 0 0 0 Z " fill="#E2C573" transform="translate(53,154)"/>
<path d="M0 0 C0.33 0 0.66 0 1 0 C0.6875 3.375 0.6875 3.375 0 7 C-0.99 7.66 -1.98 8.32 -3 9 C-3 6.69 -3 4.38 -3 2 C-2.01 2 -1.02 2 0 2 C0 1.34 0 0.68 0 0 Z " fill="#E3C775" transform="translate(231,170)"/>
<path d="M0 0 C0.66 0.33 1.32 0.66 2 1 C2 1.66 2 2.32 2 3 C1.34 3 0.68 3 0 3 C-0.12375 3.78375 -0.2475 4.5675 -0.375 5.375 C-1 8 -1 8 -3 10 C-2.88637738 8.5199159 -2.75877092 7.04089926 -2.625 5.5625 C-2.55539063 4.73878906 -2.48578125 3.91507812 -2.4140625 3.06640625 C-2.27742187 2.38449219 -2.14078125 1.70257813 -2 1 C-1.34 0.67 -0.68 0.34 0 0 Z " fill="#271B0B" transform="translate(252,71)"/>
<path d="M0 0 C0.66 0 1.32 0 2 0 C2.25532751 3.06393013 2.21861333 4.63233212 0.625 7.3125 C-0.179375 8.1478125 -0.179375 8.1478125 -1 9 C-1.66 9 -2.32 9 -3 9 C-2.01 6.03 -1.02 3.06 0 0 Z " fill="#D0B66E" transform="translate(103,47)"/>
<path d="M0 0 C2.40072955 2.88087546 4.47291037 5.56404834 6 9 C4.1875 8.875 4.1875 8.875 2 8 C0.1875 5.0625 0.1875 5.0625 -1 2 C-0.67 1.34 -0.34 0.68 0 0 Z " fill="#D8BF78" transform="translate(184,173)"/>
<path d="M0 0 C1.76462683 3.08809695 2 4.23312136 2 8 C3.32 8.33 4.64 8.66 6 9 C4.68 9.33 3.36 9.66 2 10 C-1.07692308 5.69230769 -1.07692308 5.69230769 -0.6875 2.1875 C-0.460625 1.465625 -0.23375 0.74375 0 0 Z " fill="#D7C076" transform="translate(199,123)"/>
<path d="M0 0 C0.33 0 0.66 0 1 0 C1 2.31 1 4.62 1 7 C0.34 7 -0.32 7 -1 7 C-1 7.66 -1 8.32 -1 9 C-1.66 9 -2.32 9 -3 9 C-2.44271087 5.65626525 -1.64826111 2.96687001 0 0 Z " fill="#E4C878" transform="translate(86,82)"/>
<path d="M0 0 C2.10633718 1.70828921 2.93801608 2.52148416 3.29296875 5.26171875 C3.25816406 6.06222656 3.22335938 6.86273438 3.1875 7.6875 C3.16042969 8.49574219 3.13335937 9.30398437 3.10546875 10.13671875 C3.07066406 10.75160156 3.03585938 11.36648437 3 12 C2.67 12 2.34 12 2 12 C0.70756464 7.8803623 -0.26252625 4.33168317 0 0 Z " fill="#D4BB6E" transform="translate(159,37)"/>
<path d="M0 0 C0.66 0 1.32 0 2 0 C1.8125 1.875 1.8125 1.875 1 4 C-1.5625 5.25 -1.5625 5.25 -4 6 C-4.33 5.01 -4.66 4.02 -5 3 C-4.34 2.67 -3.68 2.34 -3 2 C-2.01 2.33 -1.02 2.66 0 3 C0 2.01 0 1.02 0 0 Z " fill="#EBD07B" transform="translate(170,176)"/>
<path d="M0 0 C0.66 0.66 1.32 1.32 2 2 C1.75 4.0625 1.75 4.0625 1 6 C0.01 6.495 0.01 6.495 -1 7 C-1.66 7.99 -2.32 8.98 -3 10 C-2.39009109 6.44219804 -1.4216319 3.3171411 0 0 Z " fill="#DDC473" transform="translate(71,111)"/>
<path d="M0 0 C0.33 0 0.66 0 1 0 C2.125 6.625 2.125 6.625 1 10 C0.34 10 -0.32 10 -1 10 C-0.67 6.7 -0.34 3.4 0 0 Z " fill="#BBA462" transform="translate(207,62)"/>
<path d="" fill="#FFFFFF" transform="translate(0,0)"/>
<path d="" fill="#FFFFFF" transform="translate(0,0)"/>
<path d="" fill="#FFFFFF" transform="translate(0,0)"/>
<path d="" fill="#FFFFFF" transform="translate(0,0)"/>
<path d="" fill="#FFFFFF" transform="translate(0,0)"/>
<path d="" fill="#FFFFFF" transform="translate(0,0)"/>
<path d="" fill="#FFFFFF" transform="translate(0,0)"/>
<path d="" fill="#FFFFFF" transform="translate(0,0)"/>
<path d="" fill="#FFFFFF" transform="translate(0,0)"/>
<path d="" fill="#FFFFFF" transform="translate(0,0)"/>
<path d="" fill="#FFFFFF" transform="translate(0,0)"/>
<path d="" fill="#FFFFFF" transform="translate(0,0)"/>
<path d="" fill="#FFFFFF" transform="translate(0,0)"/>
<path d="" fill="#FFFFFF" transform="translate(0,0)"/>
<path d="" fill="#FFFFFF" transform="translate(0,0)"/>
<path d="" fill="#FFFFFF" transform="translate(0,0)"/>
<path d="" fill="#FFFFFF" transform="translate(0,0)"/>
<path d="" fill="#FFFFFF" transform="translate(0,0)"/>
<path d="" fill="#FFFFFF" transform="translate(0,0)"/>
<path d="" fill="#FFFFFF" transform="translate(0,0)"/>
<path d="" fill="#FFFFFF" transform="translate(0,0)"/>
<path d="" fill="#FFFFFF" transform="translate(0,0)"/>
<path d="" fill="#FFFFFF" transform="translate(0,0)"/>
<path d="" fill="#FFFFFF" transform="translate(0,0)"/>
<path d="" fill="#FFFFFF" transform="translate(0,0)"/>
<path d="" fill="#FFFFFF" transform="translate(0,0)"/>
<path d="" fill="#FFFFFF" transform="translate(0,0)"/>
<path d="" fill="#FFFFFF" transform="translate(0,0)"/>
<path d="" fill="#FFFFFF" transform="translate(0,0)"/>
<path d="" fill="#FFFFFF" transform="translate(0,0)"/>
<path d="" fill="#FFFFFF" transform="translate(0,0)"/>
<path d="" fill="#FFFFFF" transform="translate(0,0)"/>
<path d="" fill="#FFFFFF" transform="translate(0,0)"/>
<path d="" fill="#FFFFFF" transform="translate(0,0)"/>
<path d="" fill="#FFFFFF" transform="translate(0,0)"/>
<path d="" fill="#FFFFFF" transform="translate(0,0)"/>
<path d="" fill="#FFFFFF" transform="translate(0,0)"/>
<path d="" fill="#FFFFFF" transform="translate(0,0)"/>
<path d="" fill="#FFFFFF" transform="translate(0,0)"/>
<path d="" fill="#FFFFFF" transform="translate(0,0)"/>
<path d="" fill="#FFFFFF" transform="translate(0,0)"/>
<path d="" fill="#FFFFFF" transform="translate(0,0)"/>
<path d="" fill="#FFFFFF" transform="translate(0,0)"/>
<path d="" fill="#FFFFFF" transform="translate(0,0)"/>
</svg>
